<svg xmlns="http://www.w3.org/2000/svg" fill="white" viewBox="0 0 24 24" width="24" height="24">
  <path d="M12 .5C5.37.5 0 5.87 0 12.5c0 5.29 3.44 9.78 8.2 11.38.6.11.82-.26.82-.58 0-.29-.01-1.04-.02-2.04-3.34.73-4.04-1.61-4.04-1.61-.55-1.4-1.34-1.77-1.34-1.77-1.1-.76.08-.75.08-.75 1.22.09 1.86 1.26 1.86 1.26 1.08 1.86 2.83 1.32 3.52 1.01.11-.78.42-1.32.76-1.62-2.66-.3-5.47-1.33-5.47-5.9 0-1.3.47-2.36 1.24-3.2-.12-.3-.54-1.52.12-3.17 0 0 1-.32 3.3 1.23a11.52 11.52 0 0 1 6 0C17.7 4.91 18.7 5.23 18.7 5.23c.66 1.65.24 2.87.12 3.17.77.84 1.24 1.9 1.24 3.2 0 4.58-2.81 5.6-5.49 5.9.44.38.83 1.12.83 2.26 0 1.63-.02 2.94-.02 3.34 0 .32.22"/>
</svg>