<svg xmlns="http://www.w3.org/2000/svg" fill="white" viewBox="0 0 24 24" width="24" height="24">
  <path d="M23 2.999c-.8.354-1.667.593-2.573.701a4.478 4.478 0 0 0 1.967-2.467 8.95 8.95 0 0 1-2.828 1.082A4.464 4.464 0 0 0 16.616 2c-2.466 0-4.466 2-4.466 4.466 0 .35.04.692.116 1.02-3.71-.186-7.003-1.963-9.207-4.666a4.465 4.465 0 0 0-.605 2.244c0 1.548.788 2.916 1.987 3.717a4.46 4.46 0 0 1-2.026-.56v.057c0 2.163 1.538 3.967 3.578 4.375a4.48 4.48 0 0 1-2.018.077c.569 1.775 2.22 3.07 4.177 3.105A8.96 8.96 0 0 1 1 19.54a12.64 12.64 0 0 0 6.838 2.003c8.207 0 12.692-6.8 12.692-12.692 0-.194-.005-.388-.014-.58A9.072 9.072 0 0 0 23 2.998z"/>
</svg>